<svg width="524" height="93" viewBox="0 0 524 93" fill="none" xmlns="http://www.w3.org/2000/svg">
<path d="M151.704 21.256L150.624 27.736H138.528V70H130.032V27.736H117.72V21.256H151.704ZM157.548 21.256C157.884 21.256 158.652 21.256 159.852 21.256C161.052 21.208 162.396 21.184 163.884 21.184C165.372 21.184 166.86 21.184 168.348 21.184C169.836 21.136 171.06 21.112 172.02 21.112C177.588 21.112 181.812 22.216 184.692 24.424C187.62 26.632 189.084 29.752 189.084 33.784C189.084 36.136 188.436 38.248 187.14 40.12C185.844 41.992 184.044 43.504 181.74 44.656C184.62 45.76 186.804 47.32 188.292 49.336C189.828 51.352 190.596 53.68 190.596 56.32C190.596 60.448 189.036 63.784 185.916 66.328C182.796 68.824 178.068 70.072 171.732 70.072C170.436 70.072 169.044 70.072 167.556 70.072C166.068 70.072 164.652 70.048 163.308 70C161.964 70 160.764 70 159.708 70C158.7 70 157.98 70 157.548 70V21.256ZM166.116 63.88H172.308C175.572 63.88 177.9 63.16 179.292 61.72C180.732 60.232 181.452 58.384 181.452 56.176C181.452 55.168 181.284 54.184 180.948 53.224C180.66 52.264 180.132 51.4 179.364 50.632C178.596 49.864 177.564 49.264 176.268 48.832C175.02 48.352 173.436 48.112 171.516 48.112C170.364 48.112 169.332 48.112 168.42 48.112C167.556 48.112 166.788 48.136 166.116 48.184V63.88ZM166.116 41.992H171.66C174.684 41.992 176.844 41.296 178.14 39.904C179.436 38.512 180.084 36.808 180.084 34.792C180.084 33.88 179.94 32.968 179.652 32.056C179.364 31.144 178.86 30.328 178.14 29.608C177.468 28.888 176.532 28.312 175.332 27.88C174.18 27.448 172.716 27.232 170.94 27.232C169.884 27.232 168.948 27.232 168.132 27.232C167.364 27.232 166.692 27.256 166.116 27.304V41.992ZM198.259 21.256H206.827V70H198.259V21.256ZM232.027 21.256C231.259 24.856 230.395 27.928 229.435 30.472C228.523 32.968 227.515 35.104 226.411 36.88C225.307 38.608 224.083 40.096 222.739 41.344C221.443 42.544 220.051 43.648 218.563 44.656L236.275 70H226.339L207.763 43.648V43.144C212.179 41.512 215.587 38.848 217.987 35.152C220.435 31.408 222.307 26.776 223.603 21.256H232.027ZM252.514 33.28C258.034 33.28 262.042 34.912 264.538 38.176C267.034 41.44 268.282 45.928 268.282 51.64C268.282 54.328 267.946 56.848 267.274 59.2C266.602 61.504 265.57 63.52 264.178 65.248C262.834 66.928 261.13 68.272 259.066 69.28C257.002 70.24 254.602 70.72 251.866 70.72C249.13 70.72 246.754 70.312 244.738 69.496C242.77 68.632 241.138 67.408 239.842 65.824C238.546 64.24 237.586 62.32 236.962 60.064C236.386 57.808 236.098 55.264 236.098 52.432C236.098 49.696 236.434 47.176 237.106 44.872C237.778 42.52 238.786 40.504 240.13 38.824C241.522 37.096 243.25 35.752 245.314 34.792C247.378 33.784 249.778 33.28 252.514 33.28ZM251.794 39.328C250.402 39.328 249.25 39.64 248.338 40.264C247.474 40.888 246.778 41.776 246.25 42.928C245.77 44.032 245.434 45.352 245.242 46.888C245.05 48.376 244.954 49.984 244.954 51.712C244.954 53.488 245.05 55.168 245.242 56.752C245.482 58.336 245.89 59.728 246.466 60.928C247.042 62.08 247.81 62.992 248.77 63.664C249.778 64.336 251.05 64.672 252.586 64.672C253.978 64.672 255.106 64.36 255.97 63.736C256.882 63.112 257.578 62.248 258.058 61.144C258.586 59.992 258.946 58.672 259.138 57.184C259.33 55.696 259.426 54.088 259.426 52.36C259.426 50.584 259.306 48.904 259.066 47.32C258.874 45.736 258.49 44.344 257.914 43.144C257.338 41.944 256.546 41.008 255.538 40.336C254.578 39.664 253.33 39.328 251.794 39.328ZM316.565 70V46.528C316.565 44.512 316.253 42.928 315.629 41.776C315.005 40.576 313.925 39.976 312.389 39.976C311.477 39.976 310.541 40.24 309.581 40.768C308.669 41.248 307.829 41.968 307.061 42.928C306.293 43.888 305.669 45.04 305.189 46.384C304.709 47.728 304.469 49.216 304.469 50.848V70H296.333V46.528C296.333 44.512 296.021 42.928 295.397 41.776C294.773 40.576 293.693 39.976 292.157 39.976C291.197 39.976 290.237 40.264 289.277 40.84C288.365 41.368 287.525 42.16 286.757 43.216C286.037 44.272 285.437 45.568 284.957 47.104C284.525 48.592 284.309 50.272 284.309 52.144V70H276.101V51.856C276.101 48.976 275.909 46.576 275.525 44.656C275.141 42.688 274.733 41.104 274.301 39.904C273.773 38.512 273.197 37.384 272.573 36.52L279.053 33.928C279.533 34.456 280.013 35.104 280.493 35.872C280.877 36.544 281.261 37.384 281.645 38.392C282.029 39.352 282.341 40.456 282.581 41.704C283.781 38.824 285.461 36.76 287.621 35.512C289.829 34.216 292.157 33.568 294.605 33.568C297.053 33.568 298.949 34.192 300.293 35.44C301.685 36.688 302.717 38.296 303.389 40.264C304.685 37.864 306.341 36.16 308.357 35.152C310.421 34.096 312.581 33.568 314.837 33.568C316.709 33.568 318.269 33.88 319.517 34.504C320.813 35.08 321.821 35.92 322.541 37.024C323.309 38.08 323.861 39.376 324.197 40.912C324.533 42.4 324.701 44.08 324.701 45.952V70H316.565ZM334.32 85.912V51.856C334.32 48.976 334.128 46.576 333.744 44.656C333.36 42.688 332.952 41.104 332.52 39.904C331.992 38.512 331.416 37.384 330.792 36.52L337.272 33.928C337.848 34.504 338.376 35.224 338.856 36.088C339.24 36.808 339.624 37.696 340.008 38.752C340.392 39.76 340.68 40.96 340.872 42.352C341.688 39.472 342.984 37.288 344.76 35.8C346.536 34.312 349.008 33.568 352.176 33.568C354.432 33.568 356.376 34 358.008 34.864C359.688 35.68 361.056 36.88 362.112 38.464C363.216 40 364.032 41.872 364.56 44.08C365.088 46.288 365.352 48.736 365.352 51.424C365.352 54.16 364.944 56.704 364.128 59.056C363.312 61.36 362.136 63.352 360.6 65.032C359.112 66.712 357.312 68.032 355.2 68.992C353.088 69.952 350.736 70.432 348.144 70.432C347.232 70.432 346.296 70.384 345.336 70.288C344.424 70.192 343.488 70.096 342.528 70V84.472L334.32 85.912ZM350.808 39.328C349.608 39.328 348.504 39.736 347.496 40.552C346.488 41.368 345.6 42.448 344.832 43.792C344.112 45.136 343.536 46.648 343.104 48.328C342.72 50.008 342.528 51.736 342.528 53.512V63.88C343.008 64.024 343.728 64.192 344.688 64.384C345.648 64.576 346.488 64.672 347.208 64.672C349.032 64.672 350.544 64.36 351.744 63.736C352.944 63.112 353.904 62.248 354.624 61.144C355.344 60.04 355.848 58.72 356.136 57.184C356.424 55.648 356.568 53.968 356.568 52.144C356.568 50.464 356.52 48.856 356.424 47.32C356.328 45.784 356.064 44.416 355.632 43.216C355.248 42.016 354.672 41.08 353.904 40.408C353.136 39.688 352.104 39.328 350.808 39.328ZM388.681 41.632C387.817 41.632 386.953 41.848 386.089 42.28C385.225 42.712 384.457 43.312 383.785 44.08C383.113 44.8 382.561 45.688 382.129 46.744C381.697 47.8 381.481 48.976 381.481 50.272V70H373.273V51.856C373.273 48.976 373.081 46.576 372.697 44.656C372.313 42.688 371.905 41.104 371.473 39.904C370.945 38.512 370.369 37.384 369.745 36.52L376.225 33.928C376.657 34.456 377.113 35.104 377.593 35.872C377.977 36.544 378.361 37.336 378.745 38.248C379.129 39.16 379.441 40.24 379.681 41.488C380.641 38.704 382.033 36.712 383.857 35.512C385.681 34.264 387.745 33.64 390.049 33.64C391.153 33.64 392.185 33.784 393.145 34.072C394.105 34.312 394.561 34.432 394.513 34.432L392.209 42.424C392.257 42.424 391.969 42.304 391.345 42.064C390.769 41.776 389.881 41.632 388.681 41.632ZM425.968 52.648C425.968 55.528 426.136 57.952 426.472 59.92C426.856 61.84 427.264 63.4 427.696 64.6C428.224 66.04 428.8 67.168 429.424 67.984L423.016 70.576C422.392 69.952 421.816 69.208 421.288 68.344C420.856 67.576 420.448 66.664 420.064 65.608C419.68 64.504 419.44 63.208 419.344 61.72C418.528 64.6 417.208 66.784 415.384 68.272C413.608 69.712 411.184 70.432 408.112 70.432C405.856 70.432 403.888 70.024 402.208 69.208C400.576 68.344 399.208 67.144 398.104 65.608C397 64.024 396.184 62.128 395.656 59.92C395.128 57.712 394.864 55.264 394.864 52.576C394.864 49.84 395.272 47.32 396.088 45.016C396.952 42.664 398.128 40.648 399.616 38.968C401.152 37.288 402.976 35.968 405.088 35.008C407.2 34.048 409.528 33.568 412.072 33.568C413.512 33.568 415 33.688 416.536 33.928C418.12 34.12 419.584 34.336 420.928 34.576C422.272 34.816 423.4 35.056 424.312 35.296C425.272 35.488 425.824 35.608 425.968 35.656V52.648ZM409.48 64.672C410.68 64.672 411.784 64.264 412.792 63.448C413.8 62.632 414.664 61.576 415.384 60.28C416.152 58.936 416.728 57.424 417.112 55.744C417.544 54.016 417.76 52.264 417.76 50.488V40.12C417.28 39.976 416.56 39.808 415.6 39.616C414.64 39.424 413.776 39.328 413.008 39.328C411.184 39.328 409.672 39.64 408.472 40.264C407.32 40.888 406.384 41.752 405.664 42.856C404.944 43.96 404.44 45.28 404.152 46.816C403.864 48.352 403.72 50.032 403.72 51.856C403.72 53.536 403.768 55.144 403.864 56.68C403.96 58.216 404.2 59.584 404.584 60.784C405.016 61.984 405.616 62.944 406.384 63.664C407.152 64.336 408.184 64.672 409.48 64.672Z" fill="#D80070"/>
<path d="M27.1125 80.6573C27.1125 82.1905 27.6276 83.6892 28.5924 84.964C29.5572 86.2388 30.9287 87.2323 32.5332 87.8191C34.1376 88.4058 35.9032 88.5593 37.6064 88.2602C39.3097 87.9611 40.8743 87.2228 42.1023 86.1387C43.3303 85.0546 44.1666 83.6733 44.5054 82.1696C44.8443 80.6659 44.6704 79.1073 44.0058 77.6908C43.3411 76.2743 42.2157 75.0637 40.7717 74.2119C39.3277 73.3601 37.63 72.9055 35.8934 72.9055C33.5645 72.9055 31.3312 73.7222 29.6844 75.1759C28.0377 76.6297 27.1125 78.6014 27.1125 80.6573ZM39.7959 80.6573C39.7959 81.3387 39.5671 82.0048 39.1383 82.5714C38.7094 83.138 38.1 83.5795 37.3868 83.8403C36.6737 84.1011 35.889 84.1693 35.132 84.0364C34.375 83.9034 33.6796 83.5753 33.1339 83.0935C32.5881 82.6116 32.2163 81.9978 32.0657 81.3294C31.9152 80.6611 31.9925 79.9684 32.2879 79.3389C32.5833 78.7093 33.0834 78.1712 33.7253 77.7927C34.367 77.4141 35.1215 77.212 35.8934 77.212C36.9199 77.2234 37.9001 77.5913 38.6215 78.2362C39.3428 78.8811 39.7473 79.751 39.7472 80.6573H39.7959Z" fill="#4A3A36"/>
<path d="M61.8946 72.9055C60.1579 72.9055 58.4602 73.3601 57.0163 74.2119C55.5723 75.0637 54.4467 76.2743 53.7822 77.6908C53.1175 79.1073 52.9437 80.6659 53.2825 82.1696C53.6213 83.6733 54.4575 85.0546 55.6856 86.1387C56.9136 87.2228 58.4782 87.9611 60.1815 88.2602C61.8848 88.5593 63.6504 88.4058 65.2548 87.8191C66.8593 87.2323 68.2307 86.2388 69.1955 84.964C70.1604 83.6892 70.6754 82.1905 70.6754 80.6573C70.6754 78.6014 69.7502 76.6297 68.1036 75.1759C66.4568 73.7222 64.2234 72.9055 61.8946 72.9055ZM61.8946 84.1026C61.1228 84.1026 60.3681 83.9005 59.7264 83.5219C59.0847 83.1434 58.5844 82.6053 58.289 81.9757C57.9937 81.3462 57.9164 80.6535 58.067 79.9852C58.2176 79.3168 58.5892 78.703 59.135 78.2211C59.6808 77.7393 60.3762 77.4112 61.1332 77.2782C61.8903 77.1453 62.6749 77.2135 63.388 77.4743C64.1011 77.7351 64.7106 78.1766 65.1394 78.7432C65.5683 79.3098 65.7972 79.9759 65.7972 80.6573C65.7972 81.571 65.386 82.4474 64.6541 83.0935C63.9222 83.7396 62.9296 84.1026 61.8946 84.1026Z" fill="#4A3A36"/>
<path d="M46.2358 4H31.006C29.782 4 28.6083 4.42923 27.7429 5.19325C26.8774 5.95728 26.3912 6.99353 26.3912 8.07402V24.5854H18.1666L15.7859 15.0162C15.3571 13.3128 14.2855 11.7886 12.747 10.6932C11.2083 9.59776 9.29389 8.99619 7.31734 8.98702H2.43911C1.79222 8.98702 1.17182 9.21388 0.7144 9.6177C0.256977 10.0215 0 10.5692 0 11.1403C0 11.7114 0.256977 12.2591 0.7144 12.6629C1.17182 13.0667 1.79222 13.2936 2.43911 13.2936H7.31734C8.17921 13.2983 9.01386 13.5606 9.68533 14.0376C10.3568 14.5146 10.8255 15.1784 11.015 15.9206L20.2836 53.2242L21.991 60.4679C22.4019 62.1883 23.4687 63.7323 25.0135 64.8422C26.5583 65.952 28.4875 66.5604 30.4791 66.566H61.1827C61.8295 66.566 62.45 66.3391 62.9074 65.9353C63.3649 65.5315 63.6218 64.9838 63.6218 64.4127C63.6218 63.8416 63.3649 63.2939 62.9074 62.8901C62.45 62.4863 61.8295 62.2594 61.1827 62.2594H30.4791C29.6098 62.2565 28.7678 61.9908 28.0932 61.5065C27.4187 61.0223 26.9523 60.3487 26.7717 59.5979L25.3766 53.7065H55.6215C56.2685 53.7065 56.8888 53.4797 57.3463 53.0759C57.8037 52.672 58.0606 52.1243 58.0606 51.5532C58.0606 50.9822 57.8037 50.4345 57.3463 50.0306C56.8888 49.6268 56.2685 49.4 55.6215 49.4H24.4009L19.2299 28.892H76.9101L74.9003 37.8756C74.7709 38.4364 74.8991 39.0196 75.2569 39.4969C75.6146 39.9742 76.1723 40.3065 76.8077 40.4207C77.4429 40.535 78.1035 40.4217 78.6442 40.1059C79.1848 39.7901 79.5614 39.2977 79.6907 38.7369L82.2762 27.1866C82.3485 26.8737 82.3411 26.5506 82.2545 26.2405C82.168 25.9304 82.0044 25.6413 81.7755 25.3939C81.5467 25.1466 81.2584 24.9473 80.9316 24.8104C80.6048 24.6736 80.2475 24.6026 79.8858 24.6027H70.422V13.9224C70.422 13.3874 70.3026 12.8576 70.0708 12.3633C69.8389 11.869 69.4989 11.4199 69.0704 11.0416C68.6419 10.6633 68.1332 10.3632 67.5732 10.1585C67.0134 9.95371 66.4133 9.84833 65.8072 9.84833H50.8409V8.07402C50.8409 6.99502 50.356 5.96008 49.4927 5.1963C48.6294 4.43251 47.458 4.00228 46.2358 4ZM31.2792 8.30658H45.9627V24.5854H31.2792V8.30658ZM65.5438 14.1549V24.5854H50.8409V14.1549H65.5438Z" fill="#4A3A36"/>
<path d="M89.993 50.7299C89.9599 50.3162 89.7923 49.9198 89.5101 49.5882C89.2281 49.2567 88.8436 49.0041 88.4027 48.8608L63.7092 40.8506C63.2721 40.7119 62.799 40.6864 62.3461 40.7769C61.893 40.8674 61.4787 41.0703 61.1517 41.3616C60.8249 41.6529 60.5989 42.0206 60.5006 42.4214C60.4023 42.8222 60.4357 43.2394 60.5969 43.624L69.6704 65.4239C69.8326 65.813 70.1188 66.1525 70.4943 66.4016C70.8699 66.6506 71.319 66.7986 71.7875 66.8278H71.9631C72.4039 66.8272 72.8362 66.7212 73.2141 66.521C73.5921 66.3208 73.9015 66.0339 74.1095 65.6909L78.0121 59.2741L84.9489 65.3981C85.4069 65.8024 86.0282 66.0295 86.6758 66.0295C87.3236 66.0295 87.9447 65.8024 88.4027 65.3981C88.8608 64.9937 89.118 64.4453 89.118 63.8735C89.118 63.3017 88.8608 62.7533 88.4027 62.349L81.4658 56.225L88.7344 52.7798C89.145 52.5808 89.482 52.2817 89.7052 51.9182C89.9285 51.5547 90.0284 51.1422 89.993 50.7299ZM76.2071 53.8134C75.7948 54.0116 75.456 54.3107 75.2316 54.6747L72.3046 59.4291L66.919 46.5094L81.5537 51.2639L76.2071 53.8134Z" fill="#4A3A36"/>
</svg>
